<?xml version="1.0" encoding="utf-8"?>
<!-- Generator: Adobe Illustrator 19.0.0, SVG Export Plug-In . SVG Version: 6.00 Build 0)  -->
<svg version="1.1" id="Layer_2" xmlns="http://www.w3.org/2000/svg" xmlns:xlink="http://www.w3.org/1999/xlink" x="0px" y="0px"
	 viewBox="0 0 3187.9 547.1" style="enable-background:new 0 0 3187.9 547.1;" xml:space="preserve">
<style type="text/css">
	.st0{fill:url(#XMLID_4_);stroke:url(#XMLID_5_);stroke-miterlimit:10;}
	.st1{fill:url(#XMLID_11_);stroke:url(#XMLID_12_);stroke-miterlimit:10;}
	.st2{fill:url(#XMLID_13_);stroke:url(#XMLID_14_);stroke-miterlimit:10;}
	.st3{font-family:'HighlandGothicLightFLF';}
	.st4{font-size:915.9416px;}
	.st5{font-family:'HighlandGothicFLF';}
	.st6{font-size:635.2065px;}
</style>
<g id="XMLID_2_">
	<linearGradient id="XMLID_4_" gradientUnits="userSpaceOnUse" x1="342.9427" y1="139" x2="342.9427" y2="31">
		<stop  offset="0" style="stop-color:#28377C"/>
		<stop  offset="1" style="stop-color:#21275A"/>
	</linearGradient>
	<linearGradient id="XMLID_5_" gradientUnits="userSpaceOnUse" x1="17.4427" y1="85" x2="668.4427" y2="85">
		<stop  offset="0" style="stop-color:#2A367C"/>
		<stop  offset="1" style="stop-color:#1B264F"/>
	</linearGradient>
	<path id="XMLID_8_" class="st0" d="M157.9,31L157.9,31c-77.8,2.2-140,46.1-140,99.8c0,2.8,0.2,5.5,0.5,8.2h139.5h151.5h358.5V31
		H157.9z"/>
	<linearGradient id="XMLID_11_" gradientUnits="userSpaceOnUse" x1="342.9427" y1="523" x2="342.9427" y2="415">
		<stop  offset="0" style="stop-color:#28377C"/>
		<stop  offset="1" style="stop-color:#21275A"/>
	</linearGradient>
	<linearGradient id="XMLID_12_" gradientUnits="userSpaceOnUse" x1="17.4427" y1="469" x2="668.4427" y2="469">
		<stop  offset="0" style="stop-color:#2A367C"/>
		<stop  offset="1" style="stop-color:#1B264F"/>
	</linearGradient>
	<path id="XMLID_9_" class="st1" d="M527.9,523L527.9,523c77.8-2.2,140-46.1,140-99.8c0-2.8-0.2-5.5-0.5-8.2H527.9H376.4H17.9v108
		H527.9z"/>
	<linearGradient id="XMLID_13_" gradientUnits="userSpaceOnUse" x1="342.9427" y1="374.8118" x2="342.9427" y2="179.1882">
		<stop  offset="0" style="stop-color:#28377C"/>
		<stop  offset="1" style="stop-color:#21275A"/>
	</linearGradient>
	<linearGradient id="XMLID_14_" gradientUnits="userSpaceOnUse" x1="14.272" y1="277" x2="671.6133" y2="277">
		<stop  offset="0" style="stop-color:#2A367C"/>
		<stop  offset="1" style="stop-color:#1B264F"/>
	</linearGradient>
	<path id="XMLID_7_" class="st2" d="M342.9,264.8c-20.3,0.1-41.3-0.1-62.9-0.8c-220-7-248-80-248-80s-5.7-6.7-12.3-4.3
		c-6.7,2.3-4.7,19.4-4.7,19.4s1.1,105,313,89.9c5-0.2,10,0.3,14.9,0.2l0,0c20.3-0.1,41.3,0.1,62.9,0.8c220,7,248,80,248,80
		s5.7,6.7,12.3,4.3c6.7-2.3,4.7-19.4,4.7-19.4s-1.1-105-313-89.9"/>
</g>
<text id="XMLID_22_" transform="matrix(1 0 0 1 671.1133 524.8955)" class="st3 st4">ense</text>
<text id="XMLID_3_" transform="matrix(1 0 0 1 2646.458 523.252)" class="st5 st6">D</text>
</svg>
